PathFileType	4	(X/Y/Z)	/Users/itak/Documents/Research/Walk-IL/dataset/trc/00079_00006.trc
DataRate	CameraRate	NumFrames	NumMarkers	Units	OrigDataRate	OrigDataStartFrame	OrigNumFrames
100.000000	100.000000	4	53	mm	100.000000	0	527
Frame#	Time	RPSI			LPSI			L3			STRN			T10			C7			CLAV			RBAK			LBAK			LSHO			LUPA			LAEL			LAOL			LWTS			LWPS			LFRA			LIFD			LHPS			LHTS			RSHO			RUPA			RAEL			RAOL			RWTS			RWPS			RFRA			RIFD			RHTS			RHPS			RBHD			LFHD			RFHD			LBHD			LHIP			RHIP			RASI			LASI			LKNE			LTHI			LANK			LTIP			LTOE			LMT1			LMT5			LHEE			RKNE			RTHI			RANK			RTIP			RTOE			RMT1			RMT5			RHEE			
		X1	Y1	Z1	X2	Y2	Z2	X3	Y3	Z3	X4	Y4	Z4	X5	Y5	Z5	X6	Y6	Z6	X7	Y7	Z7	X8	Y8	Z8	X9	Y9	Z9	X10	Y10	Z10	X11	Y11	Z11	X12	Y12	Z12	X13	Y13	Z13	X14	Y14	Z14	X15	Y15	Z15	X16	Y16	Z16	X17	Y17	Z17	X18	Y18	Z18	X19	Y19	Z19	X20	Y20	Z20	X21	Y21	Z21	X22	Y22	Z22	X23	Y23	Z23	X24	Y24	Z24	X25	Y25	Z25	X26	Y26	Z26	X27	Y27	Z27	X28	Y28	Z28	X29	Y29	Z29	X30	Y30	Z30	X31	Y31	Z31	X32	Y32	Z32	X33	Y33	Z33	X34	Y34	Z34	X35	Y35	Z35	X36	Y36	Z36	X37	Y37	Z37	X38	Y38	Z38	X39	Y39	Z39	X40	Y40	Z40	X41	Y41	Z41	X42	Y42	Z42	X43	Y43	Z43	X44	Y44	Z44	X45	Y45	Z45	X46	Y46	Z46	X47	Y47	Z47	X48	Y48	Z48	X49	Y49	Z49	X50	Y50	Z50	X51	Y51	Z51	X52	Y52	Z52	X53	Y53	Z53	

1	0	-1347.570678710938	1042.640625	445.818359375	-1357.35009765625	1035.728637695312	269.8316345214844	-1347.055786132812	1086.034301757812	349.2093811035156	-1104.154418945312	1289.793090820312	351.7475891113281	-1369.035522460938	1219.087158203125	342.7796630859375	-1316.0048828125	1487.73193359375	342.5647277832031	-1134.395629882812	1403.882446289062	349.4125061035156	-1377.25	1347.999389648438	414.9666748046875	-1334.861328125	1449.65869140625	240.4212341308594	-1229.622924804688	1457.0712890625	170.9669647216797	-1243.579223632812	1329.900390625	92.57920837402344	-1223.2158203125	1115.32958984375	73.08184814453125	-1286.28173828125	1099.758178710938	158.0937347412109	-1124.354248046875	879.8628540039062	137.5130004882812	-1183.651245117188	865.765625	79.46028137207031	-1200.128540039062	1006.60888671875	66.4930419921875	-1107.118408203125	693.6592407226562	157.0013580322266	-1149.2373046875	786.9342651367188	84.01802825927734	-1096.3564453125	799.017578125	132.3432464599609	-1256.921264648438	1452.113891601562	519.1475219726562	-1268.84619140625	1382.701782226562	582.7589721679688	-1293.681640625	1116.218139648438	606.6076049804688	-1272.727661132812	1095.73828125	510.746826171875	-1145.581787109375	866.2994995117188	572.0281982421875	-1218.37060546875	850.291259765625	619.8533325195312	-1279.846801757812	1036.342651367188	612.8541259765625	-1136.554809570312	679.3668823242188	554.95166015625	-1119.698852539062	767.9111328125	572.28955078125	-1177.448486328125	762.6871337890625	623.1990966796875	-1284.994506835938	1672.11669921875	286.0718383789062	-1114.713623046875	1702.274291992188	415.1142272949219	-1110.432006835938	1708.275024414062	289.1837158203125	-1280.9541015625	1658.151123046875	423.517822265625	-1256.683349609375	966.161865234375	180.3566589355469	-1280.855102539062	968.6837158203125	520.6917724609375	-1156.089477539062	980.74560546875	497.6063232421875	-1141.949584960938	973.7960815429688	227.4197387695312	-1216.645629882812	500.6077880859375	234.4125671386719	-1236.369140625	642.8167724609375	195.1418762207031	-1319.393798828125	52.02095031738281	223.3954162597656	-1277.326904296875	268.6783447265625	214.2669677734375	-1114.012451171875	46.34972381591797	240.7367248535156	-1166.005493164062	45.23007583618164	290.7871398925781	-1214.655395507812	45.25595092773438	190.2256927490234	-1376.882934570312	49.41425704956055	295.1005554199219	-1226.54931640625	518.7643432617188	496.7115478515625	-1206.469848632812	790.814208984375	528.4193115234375	-1324.756103515625	46.43518829345703	487.773681640625	-1253.449462890625	400.3541564941406	500.578369140625	-1104.680297851562	43.98757553100586	465.0684509277344	-1163.703979492188	49.42012786865234	421.1344909667969	-1201.918090820312	49.43865966796875	510.8280639648438	-1366.503051757812	47.97731781005859	426.9610900878906	
2	0.01	-1347.571411132812	1042.64404296875	445.8266296386719	-1357.345825195312	1035.717895507812	269.8486938476562	-1347.053344726562	1086.014282226562	349.2303771972656	-1104.1767578125	1289.795043945312	351.75830078125	-1369.045654296875	1219.06201171875	342.7886962890625	-1316.063232421875	1487.701782226562	342.5622863769531	-1134.431762695312	1403.877075195312	349.4106750488281	-1377.302001953125	1347.978881835938	414.9637756347656	-1334.9140625	1449.6357421875	240.4200592041016	-1229.667724609375	1457.05810546875	170.9738159179688	-1243.61962890625	1329.890625	92.57664489746094	-1223.2294921875	1115.322143554688	73.06550598144531	-1286.306396484375	1099.733764648438	158.0751037597656	-1124.349365234375	879.8661499023438	137.4844970703125	-1183.656982421875	865.7644653320312	79.41725158691406	-1200.136962890625	1006.607299804688	66.47113037109375	-1107.015869140625	693.7407836914062	156.9967803955078	-1149.198608398438	786.9345092773438	83.97596740722656	-1096.312622070312	799.0205078125	132.3021545410156	-1256.980224609375	1452.088256835938	519.15185546875	-1268.898559570312	1382.685180664062	582.758056640625	-1293.699096679688	1116.2099609375	606.6060791015625	-1272.797119140625	1095.732177734375	510.7702941894531	-1145.580322265625	866.29638671875	572.0191040039062	-1218.361328125	850.2850952148438	619.8504638671875	-1279.851684570312	1036.320678710938	612.8511352539062	-1136.545776367188	679.3615112304688	554.949951171875	-1119.660522460938	767.9054565429688	572.294921875	-1177.413696289062	762.6240234375	623.17431640625	-1285.024780273438	1672.12353515625	286.0903930664062	-1114.687377929688	1702.243774414062	415.08544921875	-1110.452514648438	1708.24462890625	289.1765747070312	-1280.973388671875	1658.149536132812	423.51123046875	-1256.67333984375	966.1536254882812	180.3690795898438	-1280.840454101562	968.6882934570312	520.7074584960938	-1156.078369140625	980.747802734375	497.6134948730469	-1141.9453125	973.7965087890625	227.4270935058594	-1216.651000976562	500.6069641113281	234.4275360107422	-1236.366943359375	642.8171997070312	195.1523132324219	-1319.4033203125	52.02605819702148	223.3880157470703	-1277.32861328125	268.6776733398438	214.2719268798828	-1114.01416015625	46.34899520874023	240.7358703613281	-1166.00244140625	45.22851181030273	290.79052734375	-1214.647338867188	45.24566650390625	190.2353820800781	-1376.878784179688	49.41571044921875	295.1022338867188	-1226.550415039062	518.7672729492188	496.7156677246094	-1206.463623046875	790.8152465820312	528.4359130859375	-1324.75537109375	46.43032073974609	487.77685546875	-1253.452514648438	400.3562927246094	500.5851745605469	-1104.680419921875	43.99173736572266	465.0653076171875	-1163.71337890625	49.40985107421875	421.1376037597656	-1201.918334960938	49.43864440917969	510.8304443359375	-1366.505126953125	47.97293853759766	426.9638061523438	
3	0.02	-1347.572509765625	1042.645751953125	445.8377685546875	-1357.343139648438	1035.705444335938	269.8701477050781	-1347.0517578125	1085.98974609375	349.2570190429688	-1104.203002929688	1289.796875	351.7705688476562	-1369.05908203125	1219.032348632812	342.8012390136719	-1316.131469726562	1487.667236328125	342.56005859375	-1134.475341796875	1403.8720703125	349.410400390625	-1377.3662109375	1347.954956054688	414.9600524902344	-1334.97509765625	1449.60888671875	240.4207611083984	-1229.722412109375	1457.043823242188	170.9812469482422	-1243.67041015625	1329.878173828125	92.57373809814453	-1223.248413085938	1115.314575195312	73.04547882080078	-1286.337768554688	1099.7060546875	158.0517425537109	-1124.351318359375	879.8687744140625	137.4464569091797	-1183.669067382812	865.763671875	79.36189270019531	-1200.148193359375	1006.605712890625	66.44340515136719	-1106.887573242188	693.8428955078125	156.9894409179688	-1149.150024414062	786.934814453125	83.92556762695312	-1096.268188476562	799.0291748046875	132.2470397949219	-1257.050903320312	1452.056884765625	519.1578369140625	-1268.964721679688	1382.664794921875	582.7545776367188	-1293.723876953125	1116.198608398438	606.6038208007812	-1272.888793945312	1095.723754882812	510.7968444824219	-1145.578002929688	866.2959594726562	572.0084228515625	-1218.349975585938	850.27685546875	619.8438110351562	-1279.859375	1036.294677734375	612.8461303710938	-1136.53173828125	679.3553466796875	554.9456176757812	-1119.617797851562	767.9091796875	572.292724609375	-1177.372436523438	762.5594482421875	623.1478881835938	-1285.056884765625	1672.140625	286.1069030761719	-1114.660400390625	1702.206909179688	415.0557861328125	-1110.475708007812	1708.205688476562	289.1692810058594	-1280.993774414062	1658.150512695312	423.5042724609375	-1256.662109375	966.1447143554688	180.3874664306641	-1280.822875976562	968.6923828125	520.725830078125	-1156.069702148438	980.7506713867188	497.6231384277344	-1141.939331054688	973.79638671875	227.4397125244141	-1216.661376953125	500.6059265136719	234.4444885253906	-1236.36865234375	642.8182983398438	195.1663360595703	-1319.412109375	52.03157806396484	223.3815155029297	-1277.332885742188	268.6773681640625	214.2780914306641	-1114.015747070312	46.34829711914062	240.7355651855469	-1165.99951171875	45.22762680053711	290.7939453125	-1214.640991210938	45.23759460449219	190.2440490722656	-1376.877075195312	49.41600036621094	295.1024169921875	-1226.550903320312	518.7685546875	496.7229614257812	-1206.45703125	790.814697265625	528.4545288085938	-1324.754760742188	46.42571640014648	487.779541015625	-1253.453735351562	400.3568725585938	500.5940246582031	-1104.680908203125	43.99867630004883	465.0631713867188	-1163.72412109375	49.40122604370117	421.1390686035156	-1201.919555664062	49.43698120117188	510.8336486816406	-1366.50830078125	47.97051620483398	426.9676513671875	
4	0.03	-1347.573974609375	1042.64501953125	445.8520812988281	-1357.342651367188	1035.692260742188	269.8954467773438	-1347.052368164062	1085.96240234375	349.2879638671875	-1104.231567382812	1289.798583984375	351.7835693359375	-1369.07568359375	1219.00048828125	342.8172302246094	-1316.204833984375	1487.631469726562	342.5584106445312	-1134.52392578125	1403.868286132812	349.4123840332031	-1377.439453125	1347.92919921875	414.955810546875	-1335.03955078125	1449.58056640625	240.4242095947266	-1229.7841796875	1457.030151367188	170.9880828857422	-1243.7294921875	1329.86376953125	92.57062530517578	-1223.272827148438	1115.3076171875	73.02291870117188	-1286.374267578125	1099.677490234375	158.0251770019531	-1124.363525390625	879.8699951171875	137.3994293212891	-1183.689453125	865.7640380859375	79.29603576660156	-1200.162475585938	1006.604248046875	66.41116333007812	-1106.744506835938	693.9519653320312	156.9742431640625	-1149.094604492188	786.9352416992188	83.87010955810547	-1096.231689453125	799.0465087890625	132.1775512695312	-1257.128662109375	1452.021484375	519.1656494140625	-1269.042114257812	1382.641479492188	582.7474365234375	-1293.755859375	1116.184204101562	606.6007690429688	-1272.999267578125	1095.712646484375	510.8236694335938	-1145.574462890625	866.298828125	571.9962158203125	-1218.33740234375	850.2666625976562	619.8319091796875	-1279.870361328125	1036.266479492188	612.8388061523438	-1136.512451171875	679.3496704101562	554.9373168945312	-1119.576293945312	767.9202880859375	572.278564453125	-1177.328002929688	762.5021362304688	623.1227416992188	-1285.087036132812	1672.169799804688	286.1185302734375	-1114.6357421875	1702.166137695312	415.0290222167969	-1110.4990234375	1708.159912109375	289.1630249023438	-1281.01318359375	1658.155395507812	423.4978332519531	-1256.651611328125	966.1362915039062	180.4120635986328	-1280.80322265625	968.6952514648438	520.7462158203125	-1156.06494140625	980.7545166015625	497.63525390625	-1141.931640625	973.7955322265625	227.4591217041016	-1216.677978515625	500.6047058105469	234.4619750976562	-1236.377075195312	642.8204345703125	195.1832580566406	-1319.418823242188	52.03646469116211	223.3769378662109	-1277.34033203125	268.6775512695312	214.2852478027344	-1114.017456054688	46.34807205200195	240.7356414794922	-1165.996948242188	45.22753524780273	290.7969055175781	-1214.636596679688	45.23254013061523	190.2508850097656	-1376.877807617188	49.41566467285156	295.1016540527344	-1226.5498046875	518.7676391601562	496.7339172363281	-1206.4501953125	790.8121337890625	528.4732666015625	-1324.754638671875	46.42191696166992	487.7817077636719	-1253.4521484375	400.3553161621094	500.6046752929688	-1104.681396484375	44.00898361206055	465.0635681152344	-1163.734619140625	49.39585494995117	421.1388244628906	-1201.921264648438	49.43371200561523	510.8373718261719	-1366.511840820312	47.96990585327148	426.97265625	
